<svg width="64" height="64" viewBox="0 0 64 64" fill="none" xmlns="http://www.w3.org/2000/svg">
  <circle cx="32" cy="32" r="32" fill="#26A17B"/>
  <path d="M32 14C41.9411 14 50 22.0589 50 32C50 41.9411 41.9411 50 32 50C22.0589 50 14 41.9411 14 32C14 22.0589 22.0589 14 32 14ZM36.9 28.7H42C42.5523 28.7 43 29.1477 43 29.7V30.9C43 31.4523 42.5523 31.9 42 31.9H37.1V38.1C37.1 38.6523 36.6523 39.1 36.1 39.1H34.9C34.3477 39.1 33.9 38.6523 33.9 38.1V31.9H30.1V38.1C30.1 38.6523 29.6523 39.1 29.1 39.1H27.9C27.3477 39.1 26.9 38.6523 26.9 38.1V31.9H22C21.4477 31.9 21 31.4523 21 30.9V29.7C21 29.1477 21.4477 28.7 22 28.7H26.9V27.1C26.9 26.5477 27.3477 26.1 27.9 26.1H29.1C29.6523 26.1 30.1 26.5477 30.1 27.1V28.7H33.9V27.1C33.9 26.5477 34.3477 26.1 34.9 26.1H36.1C36.6523 26.1 37.1 26.5477 37.1 27.1V28.7H36.9Z" fill="white"/>
</svg> 